<svg xmlns="http://www.w3.org/2000/svg" viewBox="0 0 128 128">
  <path fill="#00979C" d="M14.128 86.494c0 3.88-3.145 7.025-7.025 7.025-3.88 0-7.025-3.145-7.025-7.025 0-3.88 3.145-7.025 7.025-7.025 3.88 0 7.025 3.145 7.025 7.025"/>
  <path fill="#00979C" d="M109.252 86.494c0 3.88-3.145 7.025-7.025 7.025-3.88 0-7.025-3.145-7.025-7.025 0-3.88 3.145-7.025 7.025-7.025 3.88 0 7.025 3.145 7.025 7.025"/>
  <path fill="#00979C" d="M61.69 96.847c0 3.88-3.145 7.025-7.025 7.025-3.88 0-7.025-3.145-7.025-7.025 0-3.88 3.145-7.025 7.025-7.025 3.88 0 7.025 3.145 7.025 7.025"/>
  <path fill="#00979C" d="M14.128 41.494c0 3.88-3.145 7.025-7.025 7.025-3.88 0-7.025-3.145-7.025-7.025 0-3.88 3.145-7.025 7.025-7.025 3.88 0 7.025 3.145 7.025 7.025"/>
  <path fill="#00979C" d="M109.252 41.494c0 3.88-3.145 7.025-7.025 7.025-3.88 0-7.025-3.145-7.025-7.025 0-3.88 3.145-7.025 7.025-7.025 3.88 0 7.025 3.145 7.025 7.025"/>
  <path fill="#00979C" d="M61.69 31.141c0 3.88-3.145 7.025-7.025 7.025-3.88 0-7.025-3.145-7.025-7.025 0-3.88 3.145-7.025 7.025-7.025 3.88 0 7.025 3.145 7.025 7.025"/>
  <path fill="#00979C" d="M14.128 64.494h95.124M54.665 31.141v65.706"/>
</svg> 